<?xml version="1.0" standalone="no"?>
<!DOCTYPE svg PUBLIC "-//W3C//DTD SVG 20010904//EN"
 "http://www.w3.org/TR/2001/REC-SVG-20010904/DTD/svg10.dtd">
<svg version="1.0" xmlns="http://www.w3.org/2000/svg"
 width="1004.000000pt" height="591.000000pt" viewBox="0 0 1004.000000 591.000000"
 preserveAspectRatio="xMidYMid meet">

<g transform="translate(0.000000,591.000000) scale(0.100000,-0.100000)"
fill="#000000" stroke="none">
<path d="M0 2955 l0 -2955 5015 0 5015 0 0 2955 0 2955 -5015 0 -5015 0 0
-2955z m4250 2320 c0 -9 -162 -86 -173 -82 -7 2 26 22 73 45 83 41 100 47 100
37z m926 -30 c127 -22 278 -69 467 -144 42 -17 111 -38 153 -47 436 -90 903
-492 1212 -1044 100 -179 218 -417 243 -491 29 -88 59 -249 58 -312 l-1 -52
-14 60 c-8 33 -21 92 -30 130 -114 496 -432 980 -869 1320 -321 251 -723 426
-1125 490 -138 23 -480 31 -608 16 -397 -49 -745 -222 -1042 -520 -175 -175
-297 -339 -428 -576 -80 -144 -129 -259 -196 -458 -88 -261 -109 -377 -110
-592 l-1 -180 49 -160 c120 -393 199 -578 342 -797 217 -334 607 -596 1025
-690 97 -22 123 -23 409 -22 333 2 471 15 650 60 292 74 484 196 651 415 34
45 110 136 169 202 59 66 118 138 130 161 21 41 21 40 -26 -14 -330 -380 -807
-639 -1299 -705 -102 -14 -169 -16 -310 -12 -264 9 -426 48 -650 156 -163 80
-260 147 -384 266 -106 101 -139 147 -313 425 -329 528 -412 941 -283 1424 67
254 147 442 256 604 247 367 509 567 992 757 360 141 595 189 805 165 81 -9
160 -26 532 -116 241 -59 444 -138 626 -245 92 -54 131 -85 245 -199 175 -174
267 -296 383 -510 143 -262 222 -499 282 -845 26 -149 28 -179 29 -445 0 -309
-1 -315 -62 -505 -47 -145 -95 -247 -235 -495 -63 -113 -133 -239 -154 -280
-89 -170 -296 -322 -522 -380 -23 -6 -59 -21 -79 -33 -58 -34 -30 -4 76 82
254 206 498 517 645 823 154 322 226 636 226 990 0 447 -136 854 -405 1213
-50 66 -96 112 -295 287 -225 198 -552 397 -772 469 -105 34 -117 36 -63 7 22
-11 87 -48 145 -82 58 -34 130 -73 160 -85 126 -53 409 -262 565 -416 238
-236 399 -482 508 -775 97 -260 129 -603 81 -860 -8 -41 -19 -138 -24 -215
-18 -253 -31 -300 -155 -550 -111 -223 -275 -449 -444 -608 -84 -78 -254 -206
-368 -275 -260 -158 -611 -296 -876 -347 -94 -18 -304 -20 -572 -5 -238 14
-302 23 -420 60 -175 56 -371 166 -695 390 -113 78 -210 145 -215 148 -6 4
-50 54 -98 112 -48 58 -125 147 -171 197 -151 166 -211 270 -383 656 -44 98
-54 195 -29 281 17 56 38 71 44 30 8 -48 58 -217 89 -297 168 -437 494 -844
887 -1106 331 -220 634 -336 1011 -386 430 -57 936 54 1275 280 133 89 439
342 561 464 184 185 257 295 317 481 114 355 154 572 154 840 -1 321 -50 482
-305 995 -117 236 -121 241 -201 320 -44 45 -108 99 -141 121 -79 54 -257 156
-262 151 -2 -3 8 -12 23 -22 93 -61 281 -272 387 -435 129 -200 239 -481 291
-745 16 -82 36 -241 36 -285 -1 -42 -17 -2 -25 60 -53 413 -230 808 -465 1035
l-62 60 56 -74 c198 -258 301 -520 341 -857 19 -160 19 -263 1 -424 -33 -293
-112 -537 -249 -770 -148 -251 -302 -415 -534 -567 -186 -123 -270 -167 -450
-237 -276 -107 -532 -151 -743 -128 -94 11 -151 26 -383 104 -232 78 -283 99
-347 141 -176 118 -363 285 -501 448 -122 144 -175 217 -254 352 -153 262
-236 502 -281 807 -20 142 -15 447 10 585 75 413 273 782 589 1104 150 152
447 368 652 474 65 34 500 163 677 202 87 19 305 18 414 0z m-1197 -109 c-2
-3 -47 -33 -100 -69 -550 -367 -952 -949 -1093 -1581 -84 -370 -70 -778 36
-1131 54 -178 198 -473 285 -583 221 -277 507 -509 797 -647 303 -144 484
-183 901 -196 50 -1 50 -1 15 -10 -56 -15 -375 -15 -460 0 -228 41 -609 226
-850 414 -383 299 -647 685 -775 1130 -83 293 -98 781 -35 1153 47 273 161
520 389 844 186 263 369 412 771 628 52 28 101 51 109 52 8 0 12 -2 10 -4z
m3356 -2143 c8 -101 0 -426 -11 -475 -4 -16 -11 -28 -17 -28 -7 0 -8 46 -4
143 4 78 7 213 7 300 0 87 4 157 9 157 5 0 12 -44 16 -97z m-615 -401 c-9 -13
-10 -8 -6 23 3 22 7 76 8 120 2 76 2 75 5 -23 2 -63 -1 -109 -7 -120z m-29
-227 c-39 -195 -73 -296 -157 -465 -73 -146 -161 -267 -289 -395 -122 -122
-238 -208 -408 -302 -202 -113 -225 -106 -44 12 193 126 313 221 437 345 103
104 122 129 187 245 139 253 200 391 249 569 15 54 30 93 35 89 4 -4 -1 -48
-10 -98z m-1066 -1265 c-10 -16 -117 -75 -188 -104 -37 -15 -109 -35 -160 -46
-112 -23 -404 -39 -393 -22 4 7 22 12 39 12 18 0 113 14 212 30 170 29 299 64
424 116 62 26 75 29 66 14z m370 -166 c-23 -18 -83 -50 -73 -39 4 4 22 18 40
31 36 25 65 33 33 8z"/>
<path d="M4970 5014 c-14 -2 -65 -11 -115 -20 -257 -44 -556 -152 -786 -284
-208 -120 -308 -189 -398 -275 -177 -171 -281 -312 -397 -545 -74 -147 -103
-236 -141 -425 -23 -115 -26 -547 -5 -665 34 -191 101 -419 152 -520 70 -139
133 -216 358 -440 247 -245 271 -262 416 -304 119 -35 124 -33 33 14 -281 143
-529 408 -674 718 -245 526 -242 1137 7 1657 75 157 121 225 251 367 195 214
482 385 942 564 177 68 343 94 620 95 194 1 196 3 37 39 -84 20 -252 33 -300
24z"/>
<path d="M3604 3836 c-3 -8 -4 -29 -2 -48 l3 -33 102 -3 103 -3 2 -272 3 -272
48 -3 47 -3 0 275 0 276 105 0 105 0 0 50 0 50 -255 0 c-210 0 -257 -2 -261
-14z"/>
<path d="M4290 3800 l0 -50 215 0 215 0 6 24 c3 13 4 35 2 47 l-3 24 -217 3
-218 2 0 -50z"/>
<path d="M5114 3829 c-67 -26 -132 -84 -169 -150 -37 -69 -46 -180 -20 -258
54 -164 234 -254 409 -207 65 18 146 74 146 100 0 13 -41 56 -53 56 -3 0 -27
-15 -52 -32 -41 -29 -55 -33 -123 -36 -69 -2 -82 0 -127 25 -71 40 -106 95
-112 175 -7 78 7 126 50 174 81 93 237 108 323 32 l35 -31 31 30 c17 17 28 37
26 45 -8 19 -80 67 -125 84 -57 20 -178 17 -239 -7z"/>
<path d="M5682 3528 l3 -323 45 0 45 0 3 138 3 137 169 0 169 0 3 -137 3 -138
45 0 45 0 0 320 0 320 -47 3 -48 3 0 -135 0 -136 -170 0 -170 0 0 135 0 135
-50 0 -50 0 2 -322z"/>
<path d="M4292 3533 l3 -48 215 0 215 0 0 45 0 45 -218 3 -218 2 3 -47z"/>
<path d="M4292 3253 l3 -48 215 0 215 0 0 45 0 45 -218 3 -218 2 3 -47z"/>
<path d="M3470 2988 c0 -7 48 -154 106 -325 l107 -313 38 0 c26 0 41 6 48 18
5 9 41 109 81 222 39 113 75 208 79 213 4 4 15 -19 25 -50 10 -32 45 -136 78
-230 l60 -173 43 0 43 0 106 317 c59 177 102 321 97 326 -5 5 -26 7 -47 5
l-39 -3 -63 -185 c-84 -247 -94 -272 -103 -263 -4 4 -35 89 -69 188 -97 284
-88 265 -125 265 -18 0 -37 -6 -42 -12 -6 -7 -41 -101 -78 -208 -38 -107 -72
-206 -77 -220 -13 -34 -14 -30 -88 195 -83 251 -80 245 -135 245 -29 0 -45 -4
-45 -12z"/>
<path d="M4733 2988 c-11 -14 -11 -15 -179 -382 -63 -137 -114 -250 -114 -252
0 -2 24 -4 53 -4 l52 1 110 244 c61 135 113 245 116 245 3 0 56 -109 116 -242
l111 -243 51 -3 c28 -2 51 1 51 6 0 5 -65 151 -144 323 l-145 314 -34 3 c-19
2 -38 -3 -44 -10z"/>
<path d="M5120 2994 c0 -4 64 -150 142 -326 l143 -319 39 3 40 3 138 310 c76
171 138 316 138 323 0 8 -15 12 -44 12 -24 0 -48 -6 -53 -12 -5 -7 -56 -118
-113 -245 -57 -128 -105 -231 -108 -228 -2 2 -52 111 -111 242 l-107 238 -52
3 c-29 2 -52 0 -52 -4z"/>
<path d="M5917 2993 c-4 -3 -7 -26 -7 -50 l0 -43 215 0 215 0 0 50 0 50 -208
0 c-115 0 -212 -3 -215 -7z"/>
<path d="M5917 2723 c-4 -3 -7 -26 -7 -50 l0 -43 215 0 215 0 0 50 0 50 -208
0 c-115 0 -212 -3 -215 -7z"/>
<path d="M5917 2443 c-4 -3 -7 -26 -7 -50 l0 -43 215 0 215 0 0 50 0 50 -208
0 c-115 0 -212 -3 -215 -7z"/>
</g>
</svg>
